<?xml version="1.0" encoding="UTF-8"?>
<svg width="123px" height="49px" viewBox="0 0 123 49" version="1.1" xmlns="http://www.w3.org/2000/svg" xmlns:xlink="http://www.w3.org/1999/xlink">
    <!-- Generator: Sketch 47.1 (45422) - http://www.bohemiancoding.com/sketch -->
    <title>icon/car</title>
    <desc>Created with Sketch.</desc>
    <defs></defs>
    <g id="Page-1" stroke="none" stroke-width="1" fill="none" fill-rule="evenodd" opacity="0.300000012">
        <g id="05.-Programmer-robot-modale" transform="translate(-99.000000, -191.000000)" stroke="#4353FF" stroke-width="2">
            <g id="icon/car" transform="translate(100.000000, 192.000000)">
                <path d="M1.41631554,36.9407622 C-0.726378854,33.8475938 -0.722903885,29.9586086 4.88446679,21.4648702 C10.4918375,12.9711317 5.6985127,16.4595778 8.24062096,14.1023774 C10.7827292,11.7451771 16.7884788,6.68726862 19.7439991,5.04865359 C22.6995194,3.41003857 35.9080162,0.828142209 47.7601659,0.828142209 C59.6123156,0.828142209 65.5102608,2.82526892 72.2677157,6.44860878 C73.508426,7.11387625 85.0307123,13.2261786 87.2597259,14.1023774 C97.1709026,17.9983437 107.450461,18.989499 111.414392,20.798706 C116.269808,23.0148018 120.948219,27.0751752 120.948219,30.5099167 C120.948219,33.9446582 120.599013,36.9407622 116.390436,38.6344304 C112.18186,40.3280986 83.9032938,40.0826938 55.7506851,40.0826938 C27.5980763,40.0826938 3.55900994,40.0339306 1.41631554,36.9407622 Z" id="Path-9"></path>
                <circle id="Oval-7" fill="#FFFFFF" cx="15" cy="37" r="10"></circle>
                <circle id="Oval-7-Copy" fill="#FFFFFF" cx="101" cy="37" r="10"></circle>
                <path d="M5,21.1304933 C9.74671781,19.6231689 17.6346725,19.6231689 28.663864,21.1304933 C45.2076514,23.3914798 84.2580648,32.8375939 92.5289431,31.7253781" id="Path-10" stroke-linecap="round" stroke-linejoin="round"></path>
                <path d="M21.4585018,4.57685264 C18.6175904,7.65542437 20.6034634,10.0036154 22.9088509,11.1891047 C24.0741374,11.7883248 27.5100404,14.9288384 47.4609509,16.0593072 C59.0115251,16.7137918 80.8728495,13.1429524 94.4114975,16.6449625" id="Path-11"></path>
            </g>
        </g>
    </g>
</svg>