<?xml version="1.0" encoding="UTF-8"?>
<svg width="84px" height="84px" viewBox="0 0 84 84" version="1.1" xmlns="http://www.w3.org/2000/svg" xmlns:xlink="http://www.w3.org/1999/xlink">
    <!-- Generator: Sketch 47.1 (45422) - http://www.bohemiancoding.com/sketch -->
    <title>Group 6</title>
    <desc>Created with Sketch.</desc>
    <defs>
        <circle id="path-1" cx="28" cy="28" r="28"></circle>
        <filter x="-37.5%" y="-37.5%" width="175.0%" height="175.0%" filterUnits="objectBoundingBox" id="filter-2">
            <feOffset dx="0" dy="0" in="SourceAlpha" result="shadowOffsetOuter1"></feOffset>
            <feGaussianBlur stdDeviation="7" in="shadowOffsetOuter1" result="shadowBlurOuter1"></feGaussianBlur>
            <feColorMatrix values="0 0 0 0 0   0 0 0 0 0   0 0 0 0 0  0 0 0 0.0590183424 0" type="matrix" in="shadowBlurOuter1"></feColorMatrix>
        </filter>
    </defs>
    <g id="Page-1" stroke="none" stroke-width="1" fill="none" fill-rule="evenodd">
        <g id="06.-Infos-patient" transform="translate(-90.000000, -103.000000)">
            <g id="Group-6" transform="translate(104.000000, 117.000000)">
                <g id="Oval-3-Copy">
                    <use fill="black" fill-opacity="1" filter="url(#filter-2)" xlink:href="#path-1"></use>
                    <use fill="#FFFFFF" fill-rule="evenodd" xlink:href="#path-1"></use>
                </g>
                <g id="envelope" transform="translate(19.000000, 21.000000)" fill-rule="nonzero" fill="#4353FF">
                    <path d="M1.72638281,4.35993052 C1.95391406,4.51957104 2.63977734,4.99370374 3.78400781,5.78208394 C4.92827344,6.57046413 5.80485937,7.1774966 6.41380078,7.60321631 C6.48070312,7.64988154 6.62283984,7.75132161 6.84028125,7.90767634 C7.05775781,8.06413594 7.23846094,8.19056899 7.38225,8.28701046 C7.52614453,8.38341698 7.70009766,8.49156845 7.90428516,8.61129011 C8.10840234,8.73090689 8.3008125,8.82088165 8.48148047,8.88044536 C8.66218359,8.94049844 8.82945703,8.97024533 8.98333594,8.97024533 L8.99342578,8.97024533 L9.00355078,8.97024533 C9.15742969,8.97024533 9.32477344,8.94046348 9.50547656,8.88044536 C9.68607422,8.82088165 9.87866016,8.73080203 10.0826016,8.61129011 C10.2866484,8.49142863 10.4606016,8.38338203 10.6044961,8.28701046 C10.7483906,8.19056899 10.9289531,8.06413594 11.1465,7.90767634 C11.3639063,7.75118179 11.5062188,7.64988154 11.5731211,7.60321631 C12.1886367,7.1774966 13.7546016,6.09629647 16.2705234,4.35972079 C16.7589844,4.02055022 17.1670781,3.61129442 17.4949102,3.13223303 C17.8229883,2.65338138 17.9868516,2.15103981 17.9868516,1.62548797 C17.9868516,1.1863105 17.8278398,0.81036703 17.509957,0.497692523 C17.1921094,0.184948107 16.8156562,0.0286632862 16.3808438,0.0286632862 L1.60590234,0.0286632862 C1.0906875,0.0286632862 0.694195313,0.20162175 0.416496094,0.547538677 C0.138832031,0.893525515 0,1.32599158 0,1.84490193 C0,2.26405006 0.184078125,2.71825828 0.552058594,3.20724695 C0.920003906,3.69627058 1.31157422,4.08053339 1.72638281,4.35993052 Z" id="Shape"></path>
                    <path d="M16.983,5.42767289 C14.7884062,6.90456619 13.122,8.05235603 11.9845898,8.87079771 C11.6031797,9.15012493 11.2937695,9.36817564 11.0561484,9.5244255 C10.8185273,9.68078024 10.5025078,9.84045571 10.1076328,10.003382 C9.71289844,10.166553 9.34502344,10.2478938 9.00369141,10.2478938 L8.99346094,10.2478938 L8.98337109,10.2478938 C8.64210937,10.2478938 8.27402344,10.166553 7.87928906,10.003382 C7.48455469,9.84045571 7.16832422,9.68078024 6.93077344,9.5244255 C6.69329297,9.36817564 6.38377734,9.15012493 6.00240234,8.87079771 C5.09899219,8.21217132 3.43617187,7.06431158 1.01387109,5.42767289 C0.632355469,5.17501651 0.294433594,4.88541245 0,4.55945496 L0,12.4832806 C0,12.9226678 0.157183594,13.2984016 0.471726562,13.611111 C0.786199219,13.9239253 1.16433984,14.0802801 1.60600781,14.0802801 L16.3809844,14.0802801 C16.8225469,14.0802801 17.2006523,13.9239253 17.5151602,13.611111 C17.8297734,13.2982967 17.9868867,12.9227028 17.9868867,12.4832806 L17.9868867,4.55945496 C17.6990977,4.87866609 17.3646211,5.16827015 16.983,5.42767289 Z" id="Shape"></path>
                </g>
            </g>
        </g>
    </g>
</svg>