<?xml version="1.0" encoding="UTF-8"?>
<svg width="84px" height="84px" viewBox="0 0 84 84" version="1.1" xmlns="http://www.w3.org/2000/svg" xmlns:xlink="http://www.w3.org/1999/xlink">
    <!-- Generator: Sketch 47.1 (45422) - http://www.bohemiancoding.com/sketch -->
    <title>Group 5</title>
    <desc>Created with Sketch.</desc>
    <defs>
        <circle id="path-1" cx="28" cy="28" r="28"></circle>
        <filter x="-37.5%" y="-37.5%" width="175.0%" height="175.0%" filterUnits="objectBoundingBox" id="filter-2">
            <feOffset dx="0" dy="0" in="SourceAlpha" result="shadowOffsetOuter1"></feOffset>
            <feGaussianBlur stdDeviation="7" in="shadowOffsetOuter1" result="shadowBlurOuter1"></feGaussianBlur>
            <feColorMatrix values="0 0 0 0 0   0 0 0 0 0   0 0 0 0 0  0 0 0 0.0590183424 0" type="matrix" in="shadowBlurOuter1"></feColorMatrix>
        </filter>
    </defs>
    <g id="Page-1" stroke="none" stroke-width="1" fill="none" fill-rule="evenodd">
        <g id="06.-Infos-patient" transform="translate(-170.000000, -103.000000)">
            <g id="Group-5" transform="translate(184.000000, 117.000000)">
                <g id="Oval-3-Copy-2">
                    <use fill="black" fill-opacity="1" filter="url(#filter-2)" xlink:href="#path-1"></use>
                    <use fill="#FFFFFF" fill-rule="evenodd" xlink:href="#path-1"></use>
                </g>
                <path d="M28,36.6113781 C26.1062793,36.6113781 21,29.8659932 21,26 C21,22.1340068 24.1340068,19 28,19 C31.8659932,19 35,22.1340068 35,26 C35,29.8659932 29.8937207,36.6113781 28,36.6113781 Z M28,29 C29.6568542,29 31,27.6568542 31,26 C31,24.3431458 29.6568542,23 28,23 C26.3431458,23 25,24.3431458 25,26 C25,27.6568542 26.3431458,29 28,29 Z" id="Combined-Shape" fill="#4353FF"></path>
            </g>
        </g>
    </g>
</svg>