<?xml version="1.0" encoding="UTF-8"?>
<svg width="65px" height="83px" viewBox="0 0 65 83" version="1.1" xmlns="http://www.w3.org/2000/svg" xmlns:xlink="http://www.w3.org/1999/xlink">
    <!-- Generator: Sketch 47.1 (45422) - http://www.bohemiancoding.com/sketch -->
    <title>icon/robot</title>
    <desc>Created with Sketch.</desc>
    <defs></defs>
    <g id="Page-1" stroke="none" stroke-width="1" fill="none" fill-rule="evenodd">
        <g id="05.2-Programmer-robot-modale" transform="translate(-128.000000, -290.000000)" stroke="#4353FF" stroke-width="3">
            <g id="icon/robot" transform="translate(130.000000, 292.000000)">
                <ellipse id="Oval-6" cx="30.5688674" cy="9.73739871" rx="13.5688674" ry="9.73739871"></ellipse>
                <path d="M18.0103379,14 C12.0763581,18.9260091 7.85558421,23.2915113 5.34801615,27.0965065 C1.58666407,32.8039993 0.000124884173,39.3170088 0.000124884173,41.1850092 C0.000124884173,43.0530097 -0.0628973264,49.1507745 2.64255941,49.9416175 C5.34801615,50.7324605 8.4761515,48.74144 10.8067652,44.6158757 C13.137379,40.4903114 14.6649818,64.7106104 14.6649818,68.0555834 C14.6649818,71.4005564 16.2584566,79.439329 21.8787489,79.439329 C27.4990412,79.439329 30.888312,73.7910684 30.888312,70.3626176 C30.888312,68.0769837 30.888312,63.7616273 30.888312,57.4165483 C30.8391694,55.5072971 31.1996355,54.5526715 31.9697105,54.5526715 C32.7397854,54.5526715 33.1248229,55.5072971 33.1248229,57.4165483 C33.1248229,64.0589257 33.1248229,68.3742821 33.1248229,70.3626176 C33.1248229,73.3451209 35.2656626,79.439329 40.0860807,79.439329 C44.9064988,79.439329 46.5152815,77.2384824 48.0657665,74.419705 C49.6162515,71.6009276 49.2624686,66.1683046 49.6162515,61.3507183 C49.9700343,56.533132 50.41677,46.8756363 51.3494068,45.745756 C52.2820436,44.6158757 52.3343499,49.9416175 56.8128611,49.9416175 C61.2913722,49.9416175 61.7646022,43.8512512 59.5589212,34.9522541 C57.3532401,26.053257 53.6668103,20.5993442 48.7656206,17.8511647 C45.4981607,16.0190451 43.074188,15.1358709 41.4937024,15.201642" id="Path-7"></path>
            </g>
        </g>
    </g>
</svg>