<?xml version="1.0" encoding="UTF-8"?>
<svg width="17px" height="17px" viewBox="0 0 17 17" version="1.1" xmlns="http://www.w3.org/2000/svg" xmlns:xlink="http://www.w3.org/1999/xlink">
    <!-- Generator: Sketch 47.1 (45422) - http://www.bohemiancoding.com/sketch -->
    <title>ic_search_black_24px (3)</title>
    <desc>Created with Sketch.</desc>
    <defs></defs>
    <g id="Page-1" stroke="none" stroke-width="1" fill="none" fill-rule="evenodd">
        <g id="02.-Home" transform="translate(-19.000000, -92.000000)">
            <g id="ic_search_black_24px-(3)" transform="translate(16.000000, 89.000000)">
                <path d="M15.1497999,13.6918239 L14.3819325,13.6918239 L14.109777,13.4293882 C15.0623213,12.3213265 15.6357919,10.8827902 15.6357919,9.31789594 C15.6357919,5.82847341 12.8073185,3 9.31789594,3 C5.82847341,3 3,5.82847341 3,9.31789594 C3,12.8073185 5.82847341,15.6357919 9.31789594,15.6357919 C10.8827902,15.6357919 12.3213265,15.0623213 13.4293882,14.109777 L13.6918239,14.3819325 L13.6918239,15.1497999 L18.5517439,20 L20,18.5517439 L15.1497999,13.6918239 Z M9.5,14 C7.01,14 5,11.99 5,9.5 C5,7.01 7.01,5 9.5,5 C11.99,5 14,7.01 14,9.5 C14,11.99 11.99,14 9.5,14 Z" id="Shape" fill="#C4C9E0" fill-rule="nonzero"></path>
                <polygon id="Shape" points="0 0 24 0 24 24 0 24"></polygon>
            </g>
        </g>
    </g>
</svg>